<?xml version="1.0" standalone="no"?>
<!DOCTYPE svg PUBLIC "-//W3C//DTD SVG 20010904//EN"
 "http://www.w3.org/TR/2001/REC-SVG-20010904/DTD/svg10.dtd">
<svg version="1.0" xmlns="http://www.w3.org/2000/svg"
 width="819.000000pt" height="232.000000pt" viewBox="0 0 819.000000 232.000000"
 preserveAspectRatio="xMidYMid meet">
<metadata>
Created by potrace 1.15, written by Peter Selinger 2001-2017
</metadata>
<g transform="translate(0.000000,232.000000) scale(0.100000,-0.100000)"
fill="#000000" stroke="none">
<path d="M5880 1160 l0 -1160 1155 0 1155 0 0 1160 0 1160 -1155 0 -1155 0 0
-1160z m948 460 c40 -24 62 -73 62 -135 0 -94 -48 -155 -128 -163 -59 -5 -105
15 -132 61 -26 43 -27 139 -2 186 36 67 133 91 200 51z m620 0 c40 -24 62 -73
62 -135 0 -94 -48 -155 -128 -163 -59 -5 -105 15 -132 61 -26 43 -27 139 -2
186 36 67 133 91 200 51z m-287 -330 c22 0 29 -5 29 -20 0 -13 -7 -20 -19 -20
-16 0 -18 -6 -14 -44 3 -23 0 -53 -6 -64 -19 -35 -68 -55 -117 -48 -46 6 -64
-5 -45 -28 7 -8 39 -15 81 -18 79 -4 120 -31 120 -78 0 -63 -67 -105 -154 -98
-75 6 -106 28 -106 75 0 20 7 45 16 55 14 14 14 20 4 33 -8 9 -10 27 -6 47 4
18 6 44 5 58 -6 91 -3 102 31 133 31 28 37 29 93 23 33 -3 73 -6 88 -6z m-451
-470 c131 -75 255 -130 311 -139 95 -15 187 17 372 130 94 58 127 67 127 35 0
-18 -152 -113 -270 -170 -72 -35 -97 -42 -162 -45 -108 -5 -200 30 -420 156
-72 41 -89 59 -71 76 12 12 25 7 113 -43z"/>
<path d="M6713 1585 c-24 -10 -34 -23 -42 -52 -13 -47 -13 -59 0 -106 8 -30
18 -42 44 -53 67 -28 115 16 115 103 0 67 -15 99 -53 113 -16 5 -30 10 -31 10
-1 -1 -15 -7 -33 -15z"/>
<path d="M7333 1585 c-24 -10 -34 -23 -42 -52 -13 -47 -13 -59 0 -106 8 -30
18 -42 44 -53 67 -28 115 16 115 103 0 67 -15 99 -53 113 -16 5 -30 10 -31 10
-1 -1 -15 -7 -33 -15z"/>
<path d="M3150 1660 c0 -36 -2 -40 -25 -40 -18 0 -25 -5 -25 -20 0 -15 7 -20
25 -20 l25 0 0 -102 c0 -114 11 -148 51 -162 38 -13 79 0 79 25 0 17 -4 20
-24 15 -45 -11 -56 14 -56 125 l0 99 40 0 c33 0 40 3 40 20 0 17 -7 20 -40 20
l-40 0 0 40 c0 36 -2 40 -25 40 -22 0 -25 -4 -25 -40z"/>
<path d="M2062 1610 c-41 -25 -62 -73 -62 -140 0 -94 39 -149 112 -157 52 -5
108 25 108 58 0 11 -3 19 -7 17 -5 -2 -25 -12 -46 -23 -35 -18 -41 -18 -65 -4
-41 23 -54 56 -48 124 4 49 9 64 31 82 31 27 49 28 89 8 37 -20 46 -19 46 5 0
24 -47 50 -92 50 -18 0 -48 -9 -66 -20z"/>
<path d="M2365 1606 c-31 -31 -35 -32 -35 -6 0 13 -7 20 -20 20 -19 0 -20 -7
-20 -150 l0 -150 25 0 25 0 0 101 c0 86 3 105 21 130 16 23 28 29 55 29 31 0
35 3 32 23 -5 33 -51 35 -83 3z"/>
<path d="M2876 1605 c-34 -23 -36 -23 -36 -5 0 13 -7 20 -20 20 -19 0 -20 -7
-20 -210 l0 -210 25 0 c24 0 25 2 25 77 0 74 1 76 19 59 28 -25 83 -31 118
-12 42 21 67 78 67 151 -1 131 -85 193 -178 130z m95 -34 c18 -14 23 -31 27
-80 7 -99 -31 -155 -90 -132 -47 18 -59 43 -56 117 3 65 5 69 37 91 41 28 52
28 82 4z"/>
<path d="M3403 1614 c-63 -31 -93 -148 -59 -229 39 -93 183 -99 241 -11 48 73
19 213 -49 241 -45 19 -93 19 -133 -1z m107 -39 c33 -17 45 -48 44 -113 -1
-56 -20 -89 -59 -102 -45 -15 -82 1 -100 45 -28 65 -12 145 34 170 34 18 46
18 81 0z"/>
<path d="M4043 1614 c-63 -31 -93 -148 -59 -229 39 -93 183 -99 241 -11 48 73
19 213 -49 241 -45 19 -93 19 -133 -1z m107 -39 c33 -17 45 -48 44 -113 -1
-56 -20 -89 -59 -102 -45 -15 -82 1 -100 45 -28 65 -12 145 34 170 34 18 46
18 81 0z"/>
<path d="M4365 1620 c-28 -11 -44 -31 -51 -66 -7 -38 15 -67 81 -102 39 -21
51 -33 53 -54 5 -42 -35 -57 -94 -36 -44 15 -44 15 -44 -7 0 -18 9 -26 36 -35
80 -27 154 13 154 81 0 43 -22 70 -74 90 -42 17 -66 38 -66 60 0 35 58 48 113
24 13 -5 17 -2 17 14 0 34 -73 53 -125 31z"/>
<path d="M2470 1616 c0 -2 25 -72 55 -154 l56 -150 -21 -51 c-17 -45 -18 -52
-5 -57 8 -4 21 -4 28 -1 7 3 44 92 81 198 38 107 71 200 74 207 2 7 -5 12 -21
12 -27 0 -37 -19 -82 -160 -10 -30 -21 -59 -25 -63 -4 -4 -25 43 -47 105 -36
103 -42 113 -66 116 -15 2 -27 1 -27 -2z"/>
<path d="M4580 1495 l0 -127 30 -30 c27 -27 36 -30 71 -25 23 3 52 16 65 28
l24 22 0 -21 c0 -17 6 -22 25 -22 l25 0 0 150 0 150 -25 0 -25 0 0 -104 0
-104 -35 -31 c-40 -35 -52 -37 -81 -17 -16 12 -20 30 -24 133 -5 113 -6 118
-27 121 -23 3 -23 2 -23 -123z"/>
<path d="M3720 1338 c-14 -7 -33 -30 -43 -51 -16 -31 -17 -43 -7 -71 8 -25 8
-41 1 -55 -14 -26 -14 -64 0 -78 8 -8 7 -17 -5 -34 -32 -46 -16 -100 35 -118
130 -45 260 49 186 135 -20 23 -33 27 -95 32 -70 5 -101 19 -87 41 3 6 24 8
49 5 80 -11 136 43 123 121 -5 30 -3 35 14 35 12 0 19 7 19 20 0 17 -7 20 -39
20 -21 0 -58 2 -82 5 -27 4 -54 1 -69 -7z"/>
<path d="M3333 934 c-8 -22 17 -40 167 -118 209 -108 293 -119 442 -56 109 45
283 144 286 163 7 36 -31 26 -147 -38 -136 -76 -237 -114 -297 -115 -66 0
-159 34 -298 110 -70 38 -132 70 -137 70 -5 0 -12 -7 -16 -16z"/>
</g>
</svg>
